<svg id="line_gradient" data-name="line gradient" xmlns="http://www.w3.org/2000/svg" xmlns:xlink="http://www.w3.org/1999/xlink" viewBox="0 0 64 64"><defs><style>.cls-1{fill:url(#linear-gradient);}</style><linearGradient id="linear-gradient" x1="3.99813" y1="32" x2="60.00187" y2="32" gradientUnits="userSpaceOnUse"><stop offset="0" stop-color="#2146cc" id="id_102"></stop><stop offset="0.11813" stop-color="#1166f7" id="id_103"></stop><stop offset="0.22253" stop-color="#598feb" id="id_104"></stop><stop offset="0.40385" stop-color="#83a4db" id="id_105"></stop><stop offset="0.5467" stop-color="#b6c6e3" id="id_106"></stop><stop offset="0.73352" stop-color="#c4e4e6" id="id_107"></stop><stop offset="0.86538" stop-color="#9ee38b" id="id_108"></stop><stop offset="1" stop-color="#2213f5" id="id_109"></stop></linearGradient></defs><path class="cls-1" d="M59.95963,55.80221c.07128-.07555-5.76251-18.21166-5.75148-18.29964l0-29.729a1.96239,1.96239,0,0,0-1.96-1.96H43.77793a1.00016,1.00016,0,0,0,.00005,2l8.43013-.04V36.671H11.78672L11.74815,7.81357h8.47021a1,1,0,0,0,0-2H11.74815a1.96239,1.96239,0,0,0-1.96,1.96V37.50271L4.04453,55.69149c.00208.10127-.03875.19833-.0464.30127l0,2.07569A1.96675,1.96675,0,0,0,5.9625,60.0328H58.03379a1.96676,1.96676,0,0,0,1.96436-1.96435C59.99149,58.00166,60.02754,55.80017,59.95963,55.80221ZM11.51591,38.67343H52.48038l5.15351,16.31933H6.3624ZM57.99815,58.0328l-52,.03565V56.99276h52ZM18.13828,10.53329H14.46836l.03955.56006v22.8999l34.90039-.04-.04-23.46-3.5102.04a1.00017,1.00017,0,0,1-.00005-2H49.4083a1.96239,1.96239,0,0,1,1.96,1.96v23.5a1.96238,1.96238,0,0,1-1.96,1.96H14.46836a1.96249,1.96249,0,0,1-1.96045-1.96v-23.5a1.9625,1.9625,0,0,1,1.96045-1.96h3.66992a1,1,0,0,1,0,2Zm-.39844,30.995H15.81126V39.5997h1.92858Zm3.80561,0H19.61692V39.5997h1.92853Zm3.80566,0H23.42258V39.5997h1.92853Zm3.80567,0H27.22819V39.5997h1.92859Zm3.80566,0H31.03385V39.5997h1.92859Zm3.80566,0H34.83951V39.5997H36.7681Zm3.80561,0H38.64518V39.5997h1.92853Zm3.80566,0H42.45084V39.5997h1.92853Zm3.80566,0H46.25645V39.5997H48.185ZM13.90842,43.45681H15.837V45.3854H13.90842Zm3.80567,0h1.92859V45.3854H17.71409Zm3.80566,0h1.92853V45.3854H21.51975Zm5.73419,1.92859H25.32535V43.45681h1.92859Zm3.80567,0H29.131V43.45681h1.92859Zm3.80566,0H32.93668V43.45681h1.92859Zm1.87708-1.92859h1.92859V45.3854H36.74235Zm5.73419,1.92859H40.548V43.45681h1.92853Zm3.80566,0H44.35361V43.45681H46.2822Zm3.80567,0H48.15928V43.45681h1.92859ZM12.89628,47.314h2.0365v1.92853h-2.0365Zm4.01855,0h2.0365v1.92853h-2.0365Zm4.01862,0H22.97v1.92853h-2.0365Zm4.01855,0h2.0365v1.92853H24.952Zm4.01862,0h2.0365v1.92853h-2.0365Zm6.055,1.92853h-2.0365V47.314h2.0365ZM37.00779,47.314h2.0365v1.92853h-2.0365Zm6.05505,1.92853h-2.0365V47.314h2.0365Zm4.01862,0H45.045V47.314h2.0365Zm4.01855,0h-2.0365V47.314H51.1ZM11.82072,51.17111h2.15112V53.0997H11.82072Zm4.24487,0h2.15112V53.0997H16.06559Zm4.24481,0h2.15119V53.0997H20.3104Zm21.22431,0h2.15118V53.0997H41.53471Zm4.24487,0H47.9307V53.0997H45.77958Zm6.396,0V53.0997H50.02445V51.17111Zm-27.28485-.03577H38.98838v2H24.89072ZM20.02256,10.68515c-5.621,9.06358,1.11314,21.30234,11.97478,21.23821,10.91652.08092,17.68226-12.34361,11.88149-21.36981A14.021,14.021,0,0,0,20.02256,10.68515Zm23.92493,6.23828h-4.175c-.49378-4.59782-1.28659-2.80017,2.856-4.54791A11.904,11.904,0,0,1,43.94749,16.92343ZM42.624,23.48037c-4.52208-1.72606-3.30768-.17883-2.85428-4.55707l4.17777.00013A11.90061,11.90061,0,0,1,42.624,23.48037ZM20.0488,18.92343h4.178a18.50455,18.50455,0,0,0,.61695,3.3999,28.24367,28.24367,0,0,0-3.47138,1.15717A11.90131,11.90131,0,0,1,20.0488,18.92343Zm6.18146,0h4.76789v2.49646a28.32077,28.32077,0,0,0-4.20643.47217A16.52083,16.52083,0,0,1,26.23026,18.92343Zm4.76789,4.53729v5.369a14.51272,14.51272,0,0,1-3.52-5.007A26.96262,26.96262,0,0,1,30.99815,23.46072Zm2,5.369V23.46066a26.97136,26.97136,0,0,1,3.5202.36176A14.51359,14.51359,0,0,1,32.99815,28.82974Zm0-7.40985V18.92343H37.766a16.52083,16.52083,0,0,1-.56146,2.96863A28.31013,28.31013,0,0,0,32.99815,21.41989Zm4.77435-4.49646H32.99815V14.49435a27.57661,27.57661,0,0,0,4.27514-.497A14.22839,14.22839,0,0,1,37.7725,16.92343Zm-4.77435-4.42938V7.0571a16.15242,16.15242,0,0,1,3.57678,5.03955A25.54346,25.54346,0,0,1,32.99815,12.49405Zm-2-5.43695V12.489a26.85575,26.85575,0,0,1-3.57136-.40527A16.15389,16.15389,0,0,1,30.99815,7.0571Zm0,7.43792v2.42841H26.22379a14.22791,14.22791,0,0,1,.49921-2.926A27.61009,27.61009,0,0,0,30.99815,14.495Zm-6.77436,2.42841h-4.175a11.90005,11.90005,0,0,1,1.31946-4.54852C25.51265,14.1257,24.71622,12.32864,24.22379,16.92343ZM22.47141,25.1907a25.57329,25.57329,0,0,1,3.022-.95373,16.70065,16.70065,0,0,0,3.3194,5.24377A12.0156,12.0156,0,0,1,22.47141,25.1907Zm12.7121,4.29a16.70057,16.70057,0,0,0,3.31952-5.2442,25.54891,25.54891,0,0,1,3.02191.9541A12.01574,12.01574,0,0,1,35.18351,29.48074ZM41.5344,10.66885a25.65152,25.65152,0,0,1-2.98187.98676A18.07232,18.07232,0,0,0,35.09373,6.343,12.01337,12.01337,0,0,1,41.5344,10.66885ZM28.90256,6.343a18.07325,18.07325,0,0,0-3.45636,5.30683,25.33208,25.33208,0,0,1-2.98309-.98255A12.01335,12.01335,0,0,1,28.90256,6.343Z" id="id_101"></path></svg>